<?xml version="1.0" standalone="no"?>
<!DOCTYPE svg PUBLIC "-//W3C//DTD SVG 20010904//EN"
 "http://www.w3.org/TR/2001/REC-SVG-20010904/DTD/svg10.dtd">
<svg version="1.0" xmlns="http://www.w3.org/2000/svg"
 width="200.000000pt" height="200.000000pt" viewBox="0 0 200.000000 200.000000"
 preserveAspectRatio="xMidYMid meet">
<metadata>
Created by potrace 1.14, written by Peter Selinger 2001-2017
</metadata>
<g transform="translate(0.000000,200.000000) scale(0.100000,-0.100000)"
fill="#000000" stroke="none">
<path d="M0 995 l0 -995 1000 0 1000 0 0 995 0 995 -1000 0 -1000 0 0 -995z
m725 655 c15 -14 162 -213 327 -443 165 -229 308 -427 319 -440 18 -22 18 -15
19 334 0 196 -3 370 -6 387 -4 17 -22 49 -40 71 -44 51 -54 95 -26 110 12 7
80 11 166 11 133 0 146 -2 156 -19 16 -31 12 -48 -20 -85 -62 -70 -60 -53 -60
-660 0 -305 -3 -562 -6 -571 -12 -29 -60 -45 -138 -45 -41 0 -86 5 -100 11
-14 7 -174 210 -383 488 l-358 476 -3 -385 c-1 -212 0 -395 3 -407 3 -12 23
-43 45 -68 41 -47 50 -81 28 -103 -17 -17 -299 -17 -316 0 -21 21 -13 57 23
109 l35 51 0 520 0 520 -35 48 c-38 52 -45 93 -17 110 10 6 81 9 189 8 167 -3
172 -4 198 -28z"/>
</g>
</svg>
